<?xml version="1.0" encoding="iso-8859-1"?>
<!-- Generator: Adobe Illustrator 16.0.0, SVG Export Plug-In . SVG Version: 6.00 Build 0)  -->
<!DOCTYPE svg PUBLIC "-//W3C//DTD SVG 1.1//EN" "http://www.w3.org/Graphics/SVG/1.1/DTD/svg11.dtd">
<svg version="1.1" id="Capa_1" xmlns="http://www.w3.org/2000/svg" xmlns:xlink="http://www.w3.org/1999/xlink" x="0px" y="0px"
	 width="589.308px" height="589.308px" viewBox="0 0 589.308 589.308" style="enable-background:new 0 0 589.308 589.308;"
	 xml:space="preserve">
<g>
	<path d="M503.587,148.307c-47.736-34.885-96.696-87.517-154.225-104.652c-5.508-1.836-9.18,1.836-10.403,6.12
		c-3.672,1.836-6.732,4.896-6.732,10.404c-1.836,39.168-1.836,78.947-1.224,118.115c-49.572-1.224-99.145-1.836-149.328-1.224
		c-34.272,0.612-128.52-7.956-156.06,22.032c-4.896-1.225-10.404,1.224-12.852,6.731c-18.36,45.288-12.24,102.816-9.792,151.164
		c2.448,56.916,6.12,113.832,11.016,170.748c0,2.448,1.224,4.284,2.448,5.508c0,3.061,2.448,6.12,7.344,6.732
		c41.616,6.731,90.576,9.792,131.58-0.612c11.016-2.448,11.016-15.3,4.284-20.808c17.748-58.141-7.344-118.116,5.508-176.868
		c55.692,3.672,112.608,1.224,168.912-1.836c0,29.988-1.224,59.976-3.672,89.964c0,1.224,0,2.448,0.612,3.672
		c-0.612,2.448-0.612,4.284-1.225,6.732c-1.224,7.956,5.509,18.972,15.301,15.3c59.363-23.256,105.264-57.528,154.224-96.696
		c34.271-27.54,87.516-66.096,89.964-114.443C591.103,204.61,530.515,167.891,503.587,148.307z"/>
</g>
<g>
</g>
<g>
</g>
<g>
</g>
<g>
</g>
<g>
</g>
<g>
</g>
<g>
</g>
<g>
</g>
<g>
</g>
<g>
</g>
<g>
</g>
<g>
</g>
<g>
</g>
<g>
</g>
<g>
</g>
</svg>
